<svg width="24" height="24" viewBox="0 0 24 24" fill="none" xmlns="http://www.w3.org/2000/svg">
<mask id="mask0_0_151" style="mask-type:alpha" maskUnits="userSpaceOnUse" x="0" y="0" width="24" height="24">
<rect width="24" height="24" fill="#D9D9D9"/>
</mask>
<g mask="url(#mask0_0_151)">
<path d="M6.49995 16.0192C7.32817 16.0192 8.13394 16.1131 8.91727 16.3009C9.70061 16.4888 10.4782 16.7833 11.25 17.1846V7.35382C10.5474 6.89614 9.78715 6.55287 8.9692 6.32402C8.15125 6.09517 7.32817 5.98075 6.49995 5.98075C5.89995 5.98075 5.33938 6.02786 4.81823 6.12207C4.29708 6.21631 3.7615 6.37047 3.2115 6.58457C3.13457 6.61022 3.08008 6.64709 3.04803 6.69517C3.01597 6.74326 2.99995 6.79614 2.99995 6.85382V16.3115C2.99995 16.4012 3.032 16.467 3.0961 16.5086C3.16022 16.5503 3.23074 16.5551 3.30768 16.523C3.78203 16.3615 4.28266 16.2372 4.80957 16.15C5.33649 16.0628 5.89995 16.0192 6.49995 16.0192ZM12.7499 17.1846C13.5217 16.7833 14.2993 16.4888 15.0826 16.3009C15.866 16.1131 16.6717 16.0192 17.4999 16.0192C18.0999 16.0192 18.6634 16.0628 19.1903 16.15C19.7172 16.2372 20.2179 16.3615 20.6922 16.523C20.7692 16.5551 20.8397 16.5503 20.9038 16.5086C20.9679 16.467 21 16.4012 21 16.3115V6.85382C21 6.79614 20.9839 6.74486 20.9519 6.69997C20.9198 6.65509 20.8653 6.61662 20.7884 6.58457C20.2384 6.37047 19.7028 6.21631 19.1817 6.12207C18.6605 6.02786 18.0999 5.98075 17.4999 5.98075C16.6717 5.98075 15.8486 6.09517 15.0307 6.32402C14.2127 6.55287 13.4525 6.89614 12.7499 7.35382V17.1846ZM11.9999 19.3845C11.1935 18.7897 10.3237 18.3301 9.39032 18.0057C8.45699 17.6813 7.49353 17.5192 6.49995 17.5192C5.8897 17.5192 5.29035 17.5868 4.7019 17.722C4.11343 17.8573 3.54613 18.0563 2.99998 18.3191C2.64358 18.4832 2.30447 18.4573 1.98267 18.2413C1.66089 18.0252 1.5 17.7191 1.5 17.323V6.46537C1.5 6.24999 1.55544 6.04775 1.66633 5.85865C1.77723 5.66955 1.93717 5.53333 2.14615 5.45C2.82307 5.12052 3.52851 4.87661 4.26248 4.71827C4.99644 4.55994 5.74227 4.48077 6.49995 4.48077C7.47303 4.48077 8.42368 4.61379 9.35188 4.87982C10.2801 5.14584 11.1628 5.53847 11.9999 6.0577C12.8371 5.53847 13.7198 5.14584 14.648 4.87982C15.5762 4.61379 16.5269 4.48077 17.4999 4.48077C18.2576 4.48077 19.0035 4.55994 19.7374 4.71827C20.4714 4.87661 21.1768 5.12052 21.8538 5.45C22.0627 5.53333 22.2227 5.66955 22.3336 5.85865C22.4445 6.04775 22.4999 6.24999 22.4999 6.46537V17.323C22.4999 17.7191 22.3326 18.022 21.998 18.2317C21.6634 18.4413 21.3115 18.464 20.9422 18.2999C20.4025 18.0435 19.8432 17.8493 19.2643 17.7172C18.6855 17.5852 18.0974 17.5192 17.4999 17.5192C16.5064 17.5192 15.5429 17.6813 14.6096 18.0057C13.6762 18.3301 12.8064 18.7897 11.9999 19.3845Z" fill="#B3B3B3"/>
</g>
</svg>
